<svg xmlns="http://www.w3.org/2000/svg" viewBox="0 0 64 64" width="64" height="64">
  <defs>
    <linearGradient id="grad1" x1="0%" y1="0%" x2="100%" y2="100%">
      <stop offset="0%" style="stop-color:#667eea;stop-opacity:1" />
      <stop offset="100%" style="stop-color:#764ba2;stop-opacity:1" />
    </linearGradient>
    <linearGradient id="grad2" x1="0%" y1="0%" x2="100%" y2="100%">
      <stop offset="0%" style="stop-color:#74b9ff;stop-opacity:1" />
      <stop offset="100%" style="stop-color:#0984e3;stop-opacity:1" />
    </linearGradient>
  </defs>
  
  <!-- 机器人头部 -->
  <rect x="16" y="20" width="32" height="28" rx="8" ry="8" fill="url(#grad1)" stroke="#fff" stroke-width="2"/>
  
  <!-- 机器人眼睛 -->
  <circle cx="24" cy="30" r="3" fill="#fff"/>
  <circle cx="40" cy="30" r="3" fill="#fff"/>
  <circle cx="24" cy="30" r="1.5" fill="url(#grad2)"/>
  <circle cx="40" cy="30" r="1.5" fill="url(#grad2)"/>
  
  <!-- 机器人嘴巴 -->
  <rect x="28" y="38" width="8" height="3" rx="1.5" ry="1.5" fill="#fff"/>
  
  <!-- 机器人天线 -->
  <line x1="26" y1="20" x2="26" y2="12" stroke="#74b9ff" stroke-width="2" stroke-linecap="round"/>
  <line x1="38" y1="20" x2="38" y2="12" stroke="#74b9ff" stroke-width="2" stroke-linecap="round"/>
  <circle cx="26" cy="10" r="2" fill="#74b9ff"/>
  <circle cx="38" cy="10" r="2" fill="#74b9ff"/>
  
  <!-- 机器人身体 -->
  <rect x="20" y="48" width="24" height="12" rx="4" ry="4" fill="url(#grad2)" stroke="#fff" stroke-width="1.5"/>
  
  <!-- 机器人按钮 -->
  <circle cx="28" cy="54" r="1.5" fill="#fff" opacity="0.8"/>
  <circle cx="36" cy="54" r="1.5" fill="#fff" opacity="0.8"/>
  
  <!-- 光晕效果 -->
  <circle cx="32" cy="32" r="28" fill="none" stroke="url(#grad1)" stroke-width="1" opacity="0.3"/>
</svg>